Coordinates
version=1
nRows=13
nColumns=40
inDegrees=yes

Units are S.I. units (second, meters, Newtons, ...)
If the header above contains a line with 'inDegrees', this indicates whether rotational values are in degrees (yes) or radians (no).

endheader
time	pelvis_tilt	pelvis_list	pelvis_rotation	pelvis_tx	pelvis_ty	pelvis_tz	hip_flexion_r	hip_adduction_r	hip_rotation_r	knee_angle_r	knee_angle_r_beta	ankle_angle_r	subtalar_angle_r	mtp_angle_r	hip_flexion_l	hip_adduction_l	hip_rotation_l	knee_angle_l	knee_angle_l_beta	ankle_angle_l	subtalar_angle_l	mtp_angle_l	lumbar_extension	lumbar_bending	lumbar_rotation	arm_flex_r	arm_add_r	arm_rot_r	elbow_flex_r	pro_sup_r	wrist_flex_r	wrist_dev_r	arm_flex_l	arm_add_l	arm_rot_l	elbow_flex_l	pro_sup_l	wrist_flex_l	wrist_dev_l
      4.85000000	    -19.57125347	      2.60973458	      1.53262699	     -0.34380530	      0.80715872	     -1.01560149	     30.97390631	     -8.18984816	     -3.59817987	    101.68546267	      1.77474612	     -7.79113498	      0.00000000	      0.00000000	     54.44974135	      3.05832236	    -10.47283287	     61.24918058	      1.06899987	     16.97517004	      0.00000000	      0.00000000	    -13.91819879	     -7.18037970	      1.42542878	     16.82197034	     -5.62581285	     13.72330317	      7.58253378	     75.34361598	      0.00000000	      0.00000000	     11.79456418	    -13.28497714	     23.81883438	     19.56955113	     83.60706724	      0.00000000	      0.00000000
      4.85500000	    -19.45013648	      2.65825195	      1.50880545	     -0.34330258	      0.80799514	     -1.01571488	     30.91424976	     -8.24776338	     -3.51972765	    101.66379453	      1.77436794	     -7.77491483	      0.00000000	      0.00000000	     54.17371304	      3.09128996	    -10.53967242	     61.05170481	      1.06555326	     16.93603138	      0.00000000	      0.00000000	    -13.85854837	     -7.21832499	      1.35762570	     16.51342638	     -5.55389261	     14.37403350	      7.63449513	     72.46269851	      0.00000000	      0.00000000	     11.38882337	    -13.28035553	     24.16683143	     19.65932234	     83.55616139	      0.00000000	      0.00000000
      4.86000000	    -19.42662924	      2.64535454	      1.52523350	     -0.34297251	      0.80877013	     -1.01583545	     30.98001716	     -8.27047538	     -3.52383463	    101.64537157	      1.77404640	     -7.73666887	      0.00000000	      0.00000000	     53.97774646	      3.10600418	    -10.56208108	     60.79478743	      1.06106921	     16.93356257	      0.00000000	      0.00000000	    -13.71795663	     -7.18705175	      1.27906820	     16.28678063	     -5.57461235	     13.66319225	      7.59235659	     75.41104637	      0.00000000	      0.00000000	     10.97239412	    -13.20682455	     24.02145824	     19.78133748	     83.42147570	      0.00000000	      0.00000000
      4.86500000	    -19.30323069	      2.60370021	      1.52772079	     -0.34249646	      0.80961474	     -1.01590032	     30.90066206	     -8.25169729	     -3.55452317	    101.59746620	      1.77321030	     -7.82228580	      0.00000000	      0.00000000	     53.75533241	      3.10666472	    -10.47585535	     60.67132029	      1.05891430	     16.83197035	      0.00000000	      0.00000000	    -13.65932170	     -7.12312231	      1.23135913	     16.00062704	     -5.55628518	     13.86150617	      7.65128494	     74.55673720	      0.00000000	      0.00000000	     10.61452812	    -13.27038866	     24.68335359	     19.93750987	     83.18568867	      0.00000000	      0.00000000
      4.87000000	    -19.34643196	      2.47312988	      1.64789416	     -0.34249212	      0.81023849	     -1.01609733	     31.02457272	     -8.22196636	     -3.72482010	    101.58459851	      1.77298571	     -7.78569339	      0.00000000	      0.00000000	     53.73301207	      3.12087495	    -10.30000038	     60.52668880	      1.05639000	     16.72984911	      0.00000000	      0.00000000	    -13.47154907	     -6.93853806	      1.12379235	     15.70961374	     -5.55767521	     14.21784040	      7.87554442	     72.21881932	      0.00000000	      0.00000000	     10.31510336	    -13.22908952	     24.67666226	     20.18708979	     83.81360706	      0.00000000	      0.00000000
      4.87500000	    -19.20755713	      2.58256240	      1.51347349	     -0.34188955	      0.81103172	     -1.01602842	     30.97522425	     -8.24541658	     -3.52096979	    101.56442988	      1.77263370	     -7.83407199	      0.00000000	      0.00000000	     53.42799564	      3.11093339	    -10.47129894	     60.32394021	      1.05285137	     16.70269413	      0.00000000	      0.00000000	    -13.40030317	     -7.07912334	      1.14071909	     15.46243155	     -5.50033119	     13.88133187	      7.92632917	     72.81885401	      0.00000000	      0.00000000	      9.91378768	    -13.25846515	     24.71545544	     20.31083885	     83.81056280	      0.00000000	      0.00000000
      4.88000000	    -19.16807607	      2.59707715	      1.45866291	     -0.34158233	      0.81174011	     -1.01608798	     31.04671539	     -8.24320360	     -3.43098236	    101.58204795	      1.77294120	     -7.78010869	      0.00000000	      0.00000000	     53.24897220	      3.08595746	    -10.54643262	     60.12509576	      1.04938088	     16.65052506	      0.00000000	      0.00000000	    -13.28526841	     -7.10898945	      1.18535054	     15.41690495	     -5.27980100	     11.68851927	      7.70497703	     74.16393410	      0.00000000	      0.00000000	      9.59258109	    -13.12571589	     24.49192507	     20.37498620	     84.02119022	      0.00000000	      0.00000000
      4.88500000	    -19.06732629	      2.69231915	      1.39131727	     -0.34108877	      0.81259337	     -1.01619500	     31.02748347	     -8.33395533	     -3.31217483	    101.54655440	      1.77232172	     -7.82273747	      0.00000000	      0.00000000	     52.99802863	      3.16116058	    -10.56754297	     59.93166150	      1.04600482	     16.60784157	      0.00000000	      0.00000000	    -13.21791721	     -7.20245216	      1.20408834	     15.17934224	     -5.28089367	     11.14537155	      7.83828089	     75.15003802	      0.00000000	      0.00000000	      9.32686279	    -13.12487864	     24.75375986	     20.54449733	     83.83439230	      0.00000000	      0.00000000
      4.89000000	    -18.64276471	      2.17801789	      1.69104036	     -0.33988627	      0.81400853	     -1.01630122	     30.32876193	     -7.91000956	     -3.89823194	    101.22220004	      1.76666067	     -7.76530508	      0.00000000	      0.00000000	     52.43609621	      2.94491967	    -10.12643327	     59.89226822	      1.04531728	     16.50524805	      0.00000000	      0.00000000	    -13.44998506	     -6.58914104	      1.00650533	     14.89332668	     -5.31885804	     11.76854560	      8.02676535	     73.76931645	      0.00000000	      0.00000000	      9.12511328	    -13.14753332	     25.67445365	     20.56872511	     83.40270242	      0.00000000	      0.00000000
      4.89500000	    -18.52458395	      2.08878511	      1.73459376	     -0.33931977	      0.81483816	     -1.01639447	     30.21707953	     -7.88031465	     -4.01074894	    101.14425668	      1.76530030	     -7.81101194	      0.00000000	      0.00000000	     52.15818820	      2.93055370	    -10.02217671	     59.69578689	      1.04188803	     16.59501683	      0.00000000	      0.00000000	    -13.39110559	     -6.47247734	      0.94098459	     14.74691325	     -5.23891332	     10.35759543	      8.10265612	     75.09122759	      0.00000000	      0.00000000	      8.74422821	    -13.11758219	     25.13738179	     20.91504631	     83.95967162	      0.00000000	      0.00000000
      4.90000000	    -18.46013726	      2.08503140	      1.72993582	     -0.33882936	      0.81558972	     -1.01646371	     30.19202897	     -7.89935142	     -4.02375731	    101.10087763	      1.76454319	     -7.73914852	      0.00000000	      0.00000000	     51.94970912	      2.93153768	    -10.04455273	     59.51284503	      1.03869509	     16.60670385	      0.00000000	      0.00000000	    -13.25315393	     -6.44142376	      0.92121160	     14.47400146	     -5.26754901	     10.76652393	      8.35899325	     74.26436288	      0.00000000	      0.00000000	      8.52921615	    -13.14669323	     25.57511498	     21.07307236	     83.81469278	      0.00000000	      0.00000000
      4.90500000	    -18.35452924	      2.03721357	      1.74983702	     -0.33830416	      0.81645541	     -1.01654965	     30.11602145	     -7.89864565	     -4.10307400	    101.01603840	      1.76306247	     -7.76530740	      0.00000000	      0.00000000	     51.69248040	      2.91464287	    -10.03132514	     59.32048285	      1.03533774	     16.58496062	      0.00000000	      0.00000000	    -13.19134239	     -6.38801861	      0.85367734	     14.37890698	     -5.18460003	      9.56315066	      8.43695769	     75.80835553	      0.00000000	      0.00000000	      8.21751345	    -13.10392420	     25.19586331	     21.30940550	     83.94204935	      0.00000000	      0.00000000
      4.91000000	    -18.21817987	      2.03221538	      1.77629601	     -0.33780356	      0.81731000	     -1.01668855	     30.00694213	     -7.92854103	     -4.14194877	    100.97438199	      1.76233543	     -7.79128237	      0.00000000	      0.00000000	     51.42124060	      2.95851906	     -9.97242521	     59.15289370	      1.03241276	     16.47833981	      0.00000000	      0.00000000	    -13.13808243	     -6.35244587	      0.81288079	     14.25046084	     -5.16225125	      9.58464545	      8.51476107	     75.22174843	      0.00000000	      0.00000000	      8.07823197	    -13.19761040	     25.88520629	     21.49042500	     83.70391173	      0.00000000	      0.00000000
